<?xml version="1.0" encoding="UTF-8"?>
<svg width="2265" height="1402" xmlns="http://www.w3.org/2000/svg" xmlns:svg="http://www.w3.org/2000/svg" preserveAspectRatio="xMidYMid meet">
 <title>Compbook</title>
 <metadata>Created by potrace 1.15, written by Peter Selinger 2001-2017</metadata>
 <g>
  <title>Layer 1</title>
  <g id="svg_1" fill="#000000" transform="translate(0,1402) scale(0.10000000149011612,-0.10000000149011612) ">
   <path id="svg_2" d="m10110,13879c-536,-13 -1036,-29 -1380,-44c-184,-8 -436,-19 -560,-24c-124,-6 -247,-13 -275,-16c-27,-3 -135,-10 -240,-15c-104,-5 -289,-16 -410,-25c-121,-8 -290,-19 -375,-25c-85,-5 -173,-12 -195,-15c-22,-3 -103,-10 -180,-15c-77,-5 -221,-16 -320,-25c-99,-9 -229,-20 -290,-25c-123,-9 -293,-25 -435,-40c-202,-21 -309,-32 -409,-40c-57,-5 -116,-12 -130,-14c-14,-3 -71,-10 -126,-16c-263,-26 -305,-30 -380,-39c-44,-6 -138,-17 -210,-26c-71,-8 -164,-19 -205,-25c-41,-5 -97,-12 -125,-15c-27,-3 -79,-10 -115,-15c-36,-6 -119,-17 -185,-25c-66,-9 -149,-20 -185,-25c-36,-5 -117,-16 -180,-25c-247,-34 -442,-62 -720,-105c-36,-6 -110,-17 -165,-25c-55,-9 -140,-22 -190,-31c-278,-47 -300,-51 -415,-75c-30,-6 -86,-15 -125,-19c-103,-12 -246,-37 -282,-50c-19,-7 -37,-24 -47,-43c-23,-50 -64,-166 -80,-232c-9,-33 -30,-100 -47,-150c-17,-49 -37,-110 -44,-135c-45,-159 -67,-239 -74,-265c-5,-16 -19,-66 -31,-110c-24,-89 -121,-474 -144,-575c-47,-200 -79,-349 -105,-480c-5,-25 -16,-79 -25,-120c-8,-41 -22,-113 -31,-160c-8,-47 -20,-107 -25,-135c-14,-78 -64,-379 -80,-495c-6,-41 -17,-115 -25,-165c-8,-49 -17,-115 -20,-145c-3,-30 -13,-104 -21,-165c-8,-60 -19,-155 -24,-210c-5,-55 -12,-111 -15,-125c-3,-14 -10,-77 -15,-140c-5,-63 -16,-198 -25,-300c-8,-102 -20,-264 -25,-360c-5,-96 -14,-254 -20,-350c-13,-230 -13,-1389 0,-1600c6,-91 15,-244 20,-340c5,-96 17,-254 25,-350c8,-96 19,-229 25,-295c5,-66 12,-131 15,-145c3,-14 10,-70 15,-125c6,-55 17,-154 25,-220c9,-66 20,-154 24,-195c5,-41 14,-106 21,-145c6,-38 15,-97 20,-130c15,-104 53,-329 81,-490c26,-150 84,-439 139,-695c23,-112 63,-279 97,-415c19,-77 39,-156 43,-175c6,-29 34,-137 80,-305c5,-16 16,-55 25,-85c9,-30 20,-68 25,-85c31,-108 67,-225 124,-400c20,-60 43,-132 52,-160c8,-27 19,-59 24,-70c5,-11 18,-47 29,-80c49,-146 93,-272 106,-300c7,-16 21,-52 30,-80c22,-68 170,-344 202,-377c28,-29 34,-31 163,-48c47,-6 121,-17 165,-25c169,-29 264,-45 360,-60c55,-8 129,-19 165,-25c363,-56 665,-99 1090,-155c63,-9 144,-20 180,-25c36,-5 88,-12 115,-15c28,-3 84,-10 125,-15c142,-18 453,-54 690,-80c58,-6 143,-16 189,-21c45,-6 126,-14 180,-19c53,-5 166,-16 251,-25c85,-8 205,-19 265,-25c61,-5 128,-12 150,-15c22,-3 96,-10 165,-15c69,-6 204,-17 300,-25c96,-9 239,-20 318,-25c79,-5 157,-12 175,-15c18,-3 106,-10 197,-16c91,-5 262,-17 380,-24c118,-8 301,-19 405,-25c105,-5 213,-12 240,-15c28,-3 151,-10 275,-15c889,-40 971,-43 1970,-70c461,-12 2098,-12 2580,0c1097,29 1581,47 2145,81c94,6 249,14 345,19c96,5 276,17 400,25c124,9 293,20 375,25c83,5 168,12 190,15c22,3 105,10 185,15c80,5 224,17 320,25c96,8 234,20 305,25c72,5 141,12 155,15c14,3 79,9 145,15c66,5 188,17 270,25c83,9 195,20 250,24c55,5 141,14 190,20c91,11 154,18 410,46c212,23 458,53 630,76c44,6 112,15 150,19c39,5 124,16 190,25c66,9 154,20 195,25c41,5 104,14 140,19c36,6 115,18 175,26c61,9 137,20 170,25c33,5 112,16 175,26c63,9 158,25 210,36c52,10 136,25 185,33c50,8 113,19 140,24c28,6 82,15 120,22c39,6 79,17 90,24c25,15 82,128 118,235c9,25 43,113 77,195c34,83 72,179 85,215c13,36 50,139 83,230c67,187 174,503 222,660c18,58 43,139 56,180c128,410 307,1163 409,1715c29,162 34,189 50,285c9,52 20,120 25,150c5,30 17,105 25,165c9,61 22,151 30,200c7,50 18,133 25,185c6,52 18,145 25,205c8,61 21,182 30,270c8,88 20,203 25,255c9,86 19,230 51,710c17,254 23,1282 10,1585c-24,545 -55,992 -91,1295c-5,47 -16,146 -25,220c-17,145 -29,240 -50,390c-32,224 -46,318 -55,370c-51,307 -63,375 -96,540c-27,144 -41,210 -59,295c-8,33 -19,85 -25,115c-30,139 -51,229 -115,490c-76,312 -120,473 -175,638c-22,68 -40,129 -40,137c0,12 -15,67 -48,173c-9,29 -23,59 -32,66c-19,17 -119,46 -158,46c-17,0 -111,13 -209,30c-98,16 -205,34 -238,39c-128,22 -336,54 -520,82c-259,39 -305,46 -500,74c-60,8 -139,20 -175,26c-36,5 -99,14 -140,19c-41,5 -129,16 -195,25c-66,9 -151,20 -190,25c-38,4 -106,13 -150,19c-205,27 -529,66 -855,101c-58,6 -143,16 -190,22c-47,5 -130,14 -185,19c-55,4 -167,15 -250,24c-82,8 -204,20 -270,25c-66,6 -131,12 -145,15c-14,3 -83,10 -155,15c-71,5 -209,17 -305,25c-96,8 -240,20 -320,25c-80,5 -163,12 -185,15c-22,3 -110,10 -195,16c-85,5 -254,16 -375,24c-121,9 -301,20 -399,25c-99,5 -254,14 -345,19c-570,35 -1100,55 -2151,81c-440,11 -2144,10 -2600,-1zm2280,-239c1067,-19 1532,-35 2380,-81c107,-6 272,-14 365,-19c251,-13 500,-30 910,-61c77,-6 196,-15 265,-20c69,-5 204,-15 300,-23c96,-9 234,-20 305,-26c72,-5 146,-12 165,-15c19,-3 89,-10 155,-15c66,-5 188,-17 270,-25c83,-9 200,-20 260,-25c61,-6 121,-12 135,-15c14,-3 72,-9 130,-15c58,-6 164,-17 235,-25c72,-9 173,-20 225,-25c52,-5 106,-12 120,-15c14,-3 66,-10 115,-15c170,-18 270,-30 335,-39c36,-6 121,-17 190,-26c69,-8 154,-20 190,-25c36,-5 117,-16 180,-25c152,-21 310,-43 390,-55c194,-29 281,-42 330,-50c30,-6 87,-14 125,-20c39,-5 115,-17 170,-26c55,-8 127,-19 160,-24c33,-5 103,-16 155,-25c100,-17 156,-26 283,-46c68,-11 80,-16 91,-38c34,-67 215,-742 295,-1101c93,-412 123,-561 187,-915c85,-473 165,-1096 209,-1630c38,-465 65,-1082 65,-1515c0,-241 -25,-1037 -35,-1115c-3,-22 -10,-110 -15,-195c-48,-751 -185,-1711 -355,-2490c-45,-206 -62,-278 -116,-500c-138,-559 -301,-1091 -497,-1625c-87,-238 -236,-609 -256,-640c-15,-23 -52,-32 -271,-65c-33,-5 -103,-16 -155,-24c-52,-8 -144,-22 -205,-31c-60,-9 -137,-20 -170,-25c-33,-5 -109,-16 -170,-25c-60,-9 -139,-20 -175,-25c-36,-6 -101,-14 -145,-20c-44,-5 -129,-17 -190,-25c-60,-9 -146,-20 -190,-25c-44,-5 -134,-16 -200,-25c-66,-8 -160,-20 -210,-25c-49,-6 -101,-12 -115,-15c-14,-3 -68,-10 -120,-15c-52,-5 -156,-16 -230,-25c-74,-9 -179,-20 -233,-25c-54,-5 -112,-12 -130,-15c-18,-3 -81,-10 -142,-15c-60,-6 -177,-17 -260,-25c-82,-8 -202,-19 -265,-25c-63,-5 -131,-12 -150,-15c-19,-3 -93,-10 -165,-15c-71,-6 -209,-17 -305,-26c-96,-8 -233,-19 -305,-24c-71,-5 -191,-14 -265,-19c-126,-10 -218,-16 -580,-42c-80,-5 -226,-14 -325,-19c-99,-5 -263,-14 -365,-19c-2121,-117 -4530,-117 -6690,0c-102,5 -259,14 -350,19c-319,17 -652,39 -915,61c-71,6 -191,14 -265,19c-74,5 -187,13 -250,19c-63,6 -171,15 -240,21c-69,6 -172,16 -230,21c-58,6 -154,15 -215,20c-60,5 -177,16 -260,24c-82,8 -199,20 -260,25c-60,6 -121,12 -135,15c-14,3 -70,10 -125,15c-55,5 -163,16 -240,25c-77,9 -180,20 -230,25c-49,5 -101,12 -115,15c-14,3 -68,10 -120,15c-52,5 -147,17 -210,25c-63,8 -160,19 -215,25c-55,6 -107,13 -115,15c-8,3 -55,9 -105,15c-49,5 -142,17 -205,25c-63,9 -144,20 -180,25c-66,8 -161,22 -280,40c-36,5 -114,17 -175,25c-60,9 -153,23 -205,31c-52,8 -124,19 -160,25c-36,5 -103,16 -150,24c-47,7 -130,21 -185,30c-126,20 -170,32 -182,48c-6,6 -40,93 -77,192c-37,99 -74,196 -81,215c-44,114 -155,446 -225,670c-18,58 -39,125 -47,150c-8,25 -21,68 -28,95c-18,66 -51,187 -71,255c-8,30 -19,71 -24,90c-5,19 -16,60 -24,90c-8,30 -22,87 -31,125c-10,39 -21,81 -25,95c-5,14 -15,59 -24,100c-18,78 -41,180 -56,240c-5,19 -16,71 -25,115c-9,44 -23,107 -30,140c-14,66 -27,129 -50,250c-36,189 -49,264 -105,595c-5,30 -16,105 -25,165c-8,61 -20,139 -26,175c-6,36 -14,99 -19,140c-5,41 -16,134 -25,205c-9,72 -20,177 -25,234c-5,57 -12,116 -15,130c-11,55 -52,622 -67,926c-16,328 -17,1377 0,1710c15,323 50,794 72,995c6,52 18,154 26,225c19,179 32,282 50,405c8,58 19,134 24,170c5,36 12,85 15,110c3,25 10,68 16,95c5,28 18,106 30,175c11,69 27,163 35,210c9,47 20,111 25,143c5,33 11,62 13,66c3,4 10,34 15,67c6,32 21,111 35,174c13,63 29,140 35,170c7,30 16,73 21,95c5,22 16,69 24,105c26,114 96,403 112,460c8,30 19,71 24,90c5,19 16,60 24,90c35,125 58,207 66,235c23,86 42,149 70,240c17,55 35,114 40,130c38,135 52,151 146,165c32,4 100,16 149,25c114,21 251,43 335,55c36,5 88,13 115,19c50,9 100,17 295,46c58,9 130,20 160,26c30,5 89,13 130,19c41,5 125,17 185,26c61,8 139,19 175,24c36,5 117,16 180,24c63,9 153,21 200,26c47,5 95,12 108,15c12,3 66,10 120,15c53,6 149,17 212,25c63,8 158,20 210,25c52,6 105,13 118,15c13,3 64,10 115,15c51,5 155,17 232,25c77,9 185,20 240,25c55,6 111,12 125,15c14,3 75,9 135,15c61,5 178,17 260,25c83,8 204,19 270,25c66,5 136,12 155,15c19,3 91,10 160,15c69,6 204,17 300,25c96,8 207,17 245,20c573,44 681,51 905,66c91,5 242,14 335,19c94,5 251,13 350,19c1360,75 2947,105 4315,81z"/>
   <path id="svg_3" d="m3249,11246c-212,-45 -350,-184 -395,-399c-24,-109 -15,-280 19,-376c65,-183 198,-292 397,-323c91,-15 263,-5 329,18c102,36 174,127 151,190c-13,33 -26,30 -75,-15c-60,-55 -141,-84 -240,-84c-181,-1 -270,70 -312,248c-17,73 -18,312 -2,399c24,126 84,215 166,247c43,17 144,14 181,-5c38,-20 79,-78 88,-126c14,-75 27,-81 107,-54c57,19 97,66 97,114c0,69 -63,126 -173,157c-76,20 -259,25 -338,9z"/>
   <path id="svg_4" d="m4362,11248c-227,-28 -373,-159 -427,-384c-26,-107 -17,-304 17,-400c70,-199 201,-296 434,-326c182,-23 356,28 467,137c129,127 187,359 141,566c-52,233 -197,371 -428,405c-101,15 -100,15 -204,2zm216,-114c108,-54 162,-201 162,-435c-1,-243 -60,-399 -173,-453c-48,-22 -160,-21 -212,3c-116,52 -165,184 -165,441c0,325 84,468 276,470c45,0 73,-6 112,-26z"/>
   <path id="svg_5" d="m5173,11233c-14,-5 -17,-41 -5,-59c4,-6 29,-14 56,-16c85,-10 81,14 84,-441c2,-274 0,-414 -8,-440c-12,-40 -38,-57 -89,-57c-34,0 -54,-21 -49,-52l3,-23l184,0c164,0 185,2 195,17c16,26 -3,51 -47,61c-74,18 -72,5 -69,414c1,201 6,372 10,380c6,9 15,-3 29,-39c19,-48 101,-275 139,-388c9,-25 19,-54 24,-65c4,-11 22,-60 40,-110c17,-49 43,-119 56,-155c13,-36 24,-70 24,-76c0,-23 38,-44 78,-44c49,0 49,0 102,153c21,62 64,184 95,272c31,88 73,210 95,270c61,173 62,176 74,172c8,-3 11,-107 11,-375c0,-413 4,-390 -70,-415c-31,-11 -41,-20 -43,-40c-5,-42 26,-47 273,-47l225,0l6,25c10,40 -1,55 -40,55c-47,0 -81,17 -95,47c-15,32 -15,783 -1,835c13,45 21,51 85,58c49,5 50,6 53,41l3,36l-198,7c-109,4 -210,5 -225,1c-22,-6 -31,-18 -46,-63c-11,-32 -38,-109 -60,-172c-23,-63 -65,-185 -95,-270c-30,-85 -61,-171 -69,-190l-15,-35l-13,25c-14,24 -32,68 -50,120c-4,14 -27,77 -50,140c-23,63 -66,185 -96,270c-30,84 -60,160 -66,167c-8,10 -60,13 -222,12c-116,0 -217,-3 -223,-6z"/>
   <path id="svg_6" d="m8195,11234c-105,-17 -211,-71 -282,-147c-58,-61 -82,-103 -113,-202c-29,-93 -32,-297 -6,-394c39,-145 125,-258 237,-312c102,-50 112,-52 256,-57c124,-4 150,-2 210,17c142,44 242,126 299,246c110,229 76,538 -77,700c-98,104 -203,145 -379,150c-63,2 -128,1 -145,-1zm183,-96c130,-31 190,-132 211,-350c19,-195 -14,-396 -79,-486c-55,-76 -179,-111 -278,-78c-57,19 -121,81 -148,143c-55,129 -59,464 -7,597c23,57 67,120 99,141c28,18 103,42 137,44c10,1 39,-4 65,-11z"/>
   <path id="svg_7" d="m16825,11234c-11,-3 -47,-9 -80,-16c-83,-15 -179,-64 -242,-122c-110,-100 -171,-291 -160,-496c10,-168 57,-290 150,-382c53,-53 163,-110 245,-127c68,-14 226,-14 294,0c137,28 277,129 333,239c54,107 66,158 72,297c7,152 -8,234 -59,342c-39,81 -124,167 -203,205c-97,48 -267,76 -350,60zm187,-120c73,-37 129,-132 149,-254c15,-89 11,-322 -7,-407c-28,-138 -83,-226 -162,-259c-55,-22 -168,-18 -221,9c-118,61 -169,220 -158,492c12,273 81,406 227,436c46,9 138,0 172,-17z"/>
   <path id="svg_8" d="m18125,11234c-292,-44 -435,-190 -475,-487c-33,-241 45,-469 197,-573c100,-69 159,-86 304,-92c152,-5 213,6 319,59c130,65 215,180 254,341c22,88 22,281 1,363c-50,193 -181,327 -365,371c-62,15 -190,25 -235,18zm193,-126c79,-37 124,-122 148,-280c27,-174 5,-394 -51,-513c-44,-92 -116,-137 -221,-138c-173,-2 -260,116 -280,376c-8,99 10,307 31,368c32,92 70,148 123,181c66,41 170,43 250,6z"/>
   <path id="svg_9" d="m6707,11223c-11,-11 -8,-48 5,-61c7,-7 31,-12 54,-12c34,0 47,-5 63,-26c20,-26 21,-37 21,-429c0,-259 -4,-413 -11,-433c-11,-33 -42,-49 -99,-54c-33,-3 -35,-5 -35,-38l0,-35l285,0l285,0l0,35l0,35l-60,5c-70,6 -103,22 -110,53c-3,12 -4,80 -3,151l3,130l130,17c170,21 234,46 306,118c68,68 89,123 89,230c0,170 -108,277 -311,310c-71,12 -601,15 -612,4zm578,-113c61,-38 95,-157 77,-274c-20,-125 -67,-178 -170,-190c-95,-12 -92,-20 -92,242c0,169 3,231 13,241c18,19 130,7 172,-19z"/>
   <path id="svg_10" d="m9305,11216c-117,-28 -221,-117 -246,-209c-15,-56 -5,-166 20,-215c40,-79 124,-138 310,-216c187,-79 245,-141 227,-241c-27,-142 -259,-184 -360,-64c-33,39 -45,65 -60,139c-11,52 -13,55 -39,53c-71,-5 -147,-74 -147,-133c0,-70 59,-144 145,-180c102,-44 295,-49 415,-13c135,42 214,116 246,231c15,55 16,71 5,125c-26,130 -106,196 -360,302c-160,66 -230,151 -201,243c20,61 51,88 120,103c88,20 166,-34 199,-141c12,-38 26,-70 31,-70c5,0 32,5 60,11c69,15 110,56 110,111c0,114 -126,179 -339,177c-47,0 -108,-6 -136,-13z"/>
   <path id="svg_11" d="m12775,11214c-140,-20 -274,-102 -343,-211c-17,-27 -43,-84 -57,-128c-23,-68 -26,-98 -27,-205c-1,-201 41,-326 147,-434c96,-97 208,-136 394,-136c184,0 289,38 391,140c100,100 150,239 150,415c0,202 -59,349 -179,450c-94,78 -174,105 -326,110c-66,2 -133,1 -150,-1zm189,-101c81,-23 135,-77 164,-166c60,-185 50,-483 -22,-625c-55,-108 -163,-153 -291,-121c-141,36 -214,214 -202,499c6,148 16,199 53,276c33,68 81,113 146,135c66,23 77,23 152,2z"/>
   <path id="svg_12" d="m15211,11207c-7,-10 -11,-27 -7,-41c5,-19 14,-24 51,-29c25,-2 55,-13 66,-23c19,-17 20,-29 17,-455c-3,-413 -4,-438 -22,-458c-12,-13 -31,-21 -50,-21c-53,0 -74,-10 -79,-38c-11,-53 -2,-54 353,-49c343,5 384,10 482,57c26,12 66,40 87,62c74,74 92,213 40,314c-27,53 -101,116 -153,131c-43,12 -45,38 -4,59c92,46 133,102 144,196c11,95 -35,189 -113,235c-98,57 -142,64 -483,70c-284,5 -316,4 -329,-10zm577,-104c57,-28 77,-73 76,-168c-1,-94 -19,-143 -66,-177c-28,-19 -45,-23 -113,-23l-80,0l-3,178c-3,222 -3,222 85,214c36,-4 82,-14 101,-24zm31,-493c51,-25 77,-71 86,-145c15,-135 -27,-243 -103,-265c-54,-16 -175,-23 -192,-11c-12,8 -14,45 -11,218c1,114 5,211 7,215c3,5 43,8 90,8c65,0 94,-5 123,-20z"/>
   <path id="svg_13" d="m9963,11194c-11,-28 12,-49 59,-54c55,-7 75,-22 87,-66c6,-21 7,-194 4,-431l-6,-397l-23,-23c-17,-17 -34,-23 -68,-23c-40,0 -46,-3 -52,-25c-14,-56 -16,-55 260,-55c140,0 261,3 270,6c19,7 21,45 4,62c-7,7 -29,12 -50,12c-45,0 -75,28 -84,79c-11,55 6,789 18,816c12,26 54,45 99,45c22,0 30,6 35,24c3,14 3,30 -1,35c-4,7 -97,11 -276,11c-240,0 -270,-2 -276,-16z"/>
   <path id="svg_14" d="m10585,11178c-3,-18 -5,-82 -3,-143l3,-110l45,0c44,0 45,0 53,40c19,95 31,120 67,137c35,18 159,25 194,12c14,-5 16,-52 16,-428c0,-402 -1,-422 -20,-453c-16,-26 -26,-33 -52,-33c-64,0 -79,-9 -76,-44l3,-31l268,-3c241,-2 268,-1 274,14c10,27 -11,48 -58,56c-29,5 -52,17 -66,33l-23,26l0,423c0,367 2,425 15,436c22,18 177,8 210,-14c23,-15 34,-43 52,-131c9,-39 10,-40 56,-43l48,-3l-3,143l-3,143l-497,3l-497,2l-6,-32z"/>
   <path id="svg_15" d="m11667,11203c-4,-3 -7,-19 -7,-34c0,-29 15,-39 60,-39c42,0 59,-9 75,-41c12,-23 15,-96 15,-422c0,-266 -4,-405 -11,-426c-13,-36 -41,-51 -94,-51c-24,0 -38,-6 -45,-19c-13,-25 -13,-27 6,-45c13,-14 52,-16 268,-16c261,0 276,2 276,42c0,21 -29,38 -64,38c-38,0 -55,10 -71,41c-12,23 -15,95 -15,419c0,472 -1,468 100,480c44,5 45,6 45,40l0,35l-266,3c-146,1 -268,-1 -272,-5z"/>
   <path id="svg_16" d="m18912,11178c3,-31 6,-33 53,-41c89,-14 85,5 84,-426c0,-383 -6,-502 -26,-522c-7,-7 -35,-14 -63,-17c-42,-4 -54,-9 -62,-28c-8,-17 -8,-27 2,-39c11,-13 52,-15 277,-15c286,0 283,-1 269,55c-6,22 -12,25 -47,25c-83,0 -99,31 -99,194c0,155 6,184 43,207c22,13 35,15 43,8c7,-6 60,-90 118,-188c57,-98 116,-192 131,-209c14,-17 51,-43 81,-58c51,-25 65,-27 187,-28l132,-1l0,35c0,33 -3,36 -40,45c-25,6 -55,25 -80,50c-60,60 -347,513 -343,541c2,13 61,84 140,167c134,141 166,166 271,206c23,9 28,16 25,39l-3,27l-212,3c-204,2 -212,2 -218,-18c-8,-27 1,-39 41,-56c45,-19 52,-51 25,-106c-24,-49 -308,-351 -322,-342c-5,3 -9,91 -9,196c0,227 5,244 79,253c68,9 73,12 69,42l-3,28l-273,3l-273,2l3,-32z"/>
   <path id="svg_17" d="m13590,11165c0,-32 3,-35 29,-35c15,0 42,-5 60,-11c60,-21 61,-28 61,-451c0,-235 -4,-398 -11,-420c-12,-44 -49,-68 -104,-68c-41,0 -50,-14 -36,-53l11,-27l187,0c104,0 194,4 201,9c8,5 12,21 10,37c-3,27 -7,29 -52,35c-37,4 -55,12 -72,33l-24,27l0,327c0,189 4,333 10,342c13,20 17,16 150,-165c261,-355 372,-504 423,-570l54,-70l69,0l69,0l6,475c4,261 10,485 14,496c8,24 44,44 80,44c40,0 55,11 55,40c0,16 -7,30 -16,34c-9,3 -99,6 -200,6l-184,0l-12,-26c-11,-22 -10,-28 7,-40c10,-8 35,-14 55,-14c47,0 69,-17 80,-63c4,-21 6,-166 2,-322c-4,-235 -7,-283 -18,-274c-17,14 -162,207 -364,484c-84,116 -162,220 -173,233c-20,21 -27,22 -194,22l-173,0l0,-35z"/>
   <path id="svg_18" d="m2787,8226c-100,-12 -121,-28 -86,-64c18,-20 30,-22 122,-22c56,0 3936,-1 8623,-2c7210,-3 8523,-1 8537,11c24,20 21,58 -5,73c-31,17 -17052,21 -17191,4z"/>
   <path id="svg_19" d="m2801,6745c-77,-8 -96,-14 -107,-31c-13,-18 -12,-23 7,-40c21,-19 93,-19 3853,-21c7256,-5 13351,-3 13391,4c44,7 55,17 55,51c0,15 -9,27 -27,35c-36,16 -17023,18 -17172,2z"/>
   <path id="svg_20" d="m2812,5185c-83,-8 -106,-14 -118,-29c-16,-23 -4,-43 33,-57c27,-10 17197,-13 17237,-3c27,6 43,41 33,68c-3,8 -29,18 -59,22c-79,13 -16999,11 -17126,-1z"/>
   <path id="svg_21" d="m8245,4158c-3,-7 -4,-195 -3,-418l3,-405l28,-3c52,-6 54,2 62,230l7,212l28,27c49,50 137,59 189,20c39,-30 49,-96 43,-288c-4,-131 -2,-176 8,-188c13,-15 65,-21 73,-7c10,15 19,324 12,397c-8,84 -29,125 -83,162c-67,45 -167,36 -230,-20c-14,-13 -26,-17 -32,-11c-5,5 -11,75 -12,154l-3,145l-43,3c-28,2 -44,-1 -47,-10z"/>
   <path id="svg_22" d="m6241,4123c-70,-21 -122,-72 -150,-148c-19,-50 -21,-79 -22,-255l-1,-198l28,-57c37,-74 83,-112 155,-126c120,-24 222,26 270,133c23,51 24,63 24,268c0,206 -1,217 -24,263c-53,106 -165,154 -280,120zm148,-90c14,-11 35,-37 46,-59c18,-35 20,-59 20,-239c0,-188 -1,-203 -23,-247c-29,-59 -74,-82 -144,-76c-59,6 -99,40 -117,97c-17,58 -15,375 4,437c23,78 76,117 149,110c22,-3 51,-13 65,-23z"/>
   <path id="svg_23" d="m6832,4117c-51,-16 -107,-77 -132,-143c-20,-53 -22,-79 -24,-249c-1,-167 1,-197 19,-243c73,-199 348,-205 436,-10c23,51 24,63 24,268l0,215l-30,54c-47,85 -111,122 -209,120c-28,-1 -66,-6 -84,-12zm175,-93c54,-41 65,-96 61,-307c-3,-167 -5,-186 -27,-230c-36,-73 -111,-100 -188,-68c-75,31 -96,122 -85,356c10,193 22,227 92,263c53,26 98,22 147,-14z"/>
   <path id="svg_24" d="m7732,4111c-130,-45 -189,-169 -132,-280c33,-67 83,-95 270,-156c88,-29 118,-52 139,-103c18,-43 2,-102 -36,-131c-59,-47 -173,-52 -253,-11c-33,17 -47,32 -63,71c-21,50 -43,65 -84,57c-28,-5 -27,-43 3,-98c51,-94 152,-137 300,-128c107,6 182,47 220,120c20,38 18,137 -3,168c-51,77 -106,112 -233,150c-143,42 -183,76 -182,151c1,81 60,129 158,129c65,0 121,-18 145,-46c8,-9 21,-35 30,-58c15,-38 19,-41 59,-44l43,-3l-6,39c-19,143 -208,231 -375,173z"/>
   <path id="svg_25" d="m5700,4109c-19,-4 -61,-12 -94,-18c-62,-11 -99,-35 -94,-60c2,-12 21,-17 78,-21l75,-5l5,-330l5,-330l31,-3c17,-2 36,3 42,10c7,9 11,132 12,373c1,198 1,365 1,371c-1,17 -21,21 -61,13z"/>
   <path id="svg_26" d="m12395,4111c-92,-24 -154,-77 -176,-150c-15,-51 -7,-71 29,-71c34,0 45,11 61,61c6,20 23,47 37,60c22,20 36,24 94,24c81,0 101,-14 125,-84c29,-89 2,-139 -217,-394c-108,-126 -128,-157 -120,-189c3,-17 23,-18 233,-18l229,0l0,35l0,35l-147,0c-142,0 -193,5 -193,19c0,3 12,20 28,37c15,18 66,77 114,132c48,54 106,130 128,168c35,61 40,76 40,133c0,81 -31,139 -93,175c-46,26 -125,39 -172,27z"/>
   <path id="svg_27" d="m12985,4113c-11,-2 -33,-11 -50,-19c-101,-48 -134,-136 -134,-359c0,-195 23,-282 93,-343c108,-94 275,-56 339,77c21,43 22,60 22,256c0,192 -2,214 -21,255c-46,98 -152,155 -249,133zm108,-88c64,-30 71,-57 75,-285c3,-198 2,-207 -20,-250c-53,-104 -180,-102 -235,3c-19,37 -31,279 -18,391c13,129 98,189 198,141z"/>
   <path id="svg_28" d="m13533,4103c-82,-35 -123,-93 -142,-204c-23,-133 -7,-370 30,-441c17,-33 60,-78 90,-93c40,-21 119,-28 167,-16c51,14 106,61 132,111c32,62 46,236 32,375c-12,113 -23,150 -64,208c-45,63 -166,93 -245,60zm147,-76c14,-6 35,-32 48,-57c22,-43 23,-53 20,-256l-3,-211l-27,-35c-36,-47 -82,-63 -137,-48c-83,22 -110,102 -111,320c0,181 21,257 81,287c31,16 97,16 129,0z"/>
   <path id="svg_29" d="m14275,4097c-3,-6 -4,-176 -3,-377l3,-365l37,-3c47,-4 47,-1 51,173l2,130l130,6c139,6 174,15 218,57c46,43 67,94 67,161c0,117 -57,191 -168,217c-76,18 -331,19 -337,1zm352,-87c41,-24 65,-71 65,-124c0,-56 -14,-88 -52,-119c-30,-26 -36,-27 -156,-27l-124,0l0,145l0,145l118,0c98,0 122,-3 149,-20z"/>
   <path id="svg_30" d="m10047,4043c-4,-3 -7,-29 -7,-57c0,-62 -7,-73 -45,-78c-26,-3 -30,-7 -30,-33c0,-26 4,-30 30,-33c16,-2 33,-9 37,-15c4,-7 8,-103 8,-215c0,-217 5,-243 52,-276c30,-21 112,-21 132,0c31,30 12,64 -35,64c-52,0 -59,25 -59,223c0,104 4,186 10,198c8,14 21,19 49,19c79,0 77,66 -2,72l-42,3l-3,55c-2,30 -8,60 -14,67c-11,14 -70,18 -81,6z"/>
   <path id="svg_31" d="m9018,3916c-90,-24 -155,-96 -183,-203c-19,-72 -19,-107 1,-192c18,-80 61,-139 128,-173c62,-33 183,-31 251,3c53,27 68,56 40,79c-12,10 -24,9 -64,-9c-90,-38 -183,-24 -230,35c-25,32 -44,98 -36,124c6,18 19,20 188,22l182,3l3,53c4,63 -20,142 -56,191c-44,59 -141,88 -224,67zm127,-92c31,-20 57,-74 53,-109l-3,-30l-130,0l-130,0l-2,25c-4,34 44,101 87,123c38,19 87,16 125,-9z"/>
   <path id="svg_32" d="m15052,3914c-63,-17 -104,-45 -128,-89c-39,-74 27,-92 86,-23c33,37 41,41 91,46c52,4 59,2 93,-28c35,-31 37,-36 34,-84l-3,-51l-95,-6c-144,-9 -205,-44 -229,-132c-10,-36 -11,-53 -1,-84c27,-86 68,-115 161,-114c60,0 98,14 136,50c23,22 25,20 48,-24c7,-13 23,-21 47,-23l36,-3l-4,173c-7,256 -9,283 -33,322c-39,63 -146,95 -239,70zm176,-357c3,-54 1,-60 -28,-87c-55,-52 -148,-63 -192,-23c-12,11 -18,30 -18,61c0,36 5,49 30,72c34,32 58,38 145,36l60,-1l3,-58z"/>
   <path id="svg_33" d="m15601,3915c-59,-18 -107,-67 -132,-134c-59,-158 -20,-346 86,-411c49,-31 153,-28 205,5c22,14 42,25 45,25c3,0 5,-20 5,-45c0,-49 -21,-99 -52,-127c-31,-26 -100,-33 -169,-15l-60,15l-16,-25c-9,-14 -12,-27 -7,-32c24,-21 101,-41 160,-41c73,0 126,18 167,58c61,58 61,61 65,381c2,162 1,305 -3,318c-8,34 -61,33 -77,-2c-13,-29 -21,-31 -38,-9c-33,38 -120,58 -179,39zm133,-79c18,-7 42,-26 54,-41c20,-25 22,-39 22,-160c0,-119 -2,-135 -21,-159c-42,-54 -115,-71 -173,-41c-71,37 -102,149 -75,274c25,117 100,166 193,127z"/>
   <path id="svg_34" d="m16187,3913c-206,-70 -224,-442 -26,-543c47,-24 169,-27 220,-6c51,21 73,49 59,75c-13,26 -17,26 -71,1c-57,-25 -134,-26 -175,-1c-56,34 -98,160 -58,175c9,3 87,6 175,6c176,0 164,-5 160,70c-3,59 -23,123 -49,159c-47,63 -153,92 -235,64zm150,-96c30,-29 36,-40 37,-78l1,-44l-122,-3l-123,-3l0,32c0,36 31,91 63,114c12,8 41,15 64,15c35,0 50,-6 80,-33z"/>
   <path id="svg_35" d="m16720,3914c-84,-29 -130,-100 -116,-178c11,-59 55,-92 168,-127c143,-45 180,-90 125,-155c-18,-21 -35,-28 -75,-32c-67,-6 -107,11 -138,60c-21,32 -30,38 -59,38c-31,0 -35,-3 -35,-27c0,-40 46,-99 96,-122c60,-29 179,-29 234,-1c57,29 85,74 85,137c0,88 -52,134 -191,169c-44,10 -86,28 -100,41c-29,27 -31,68 -4,103c17,22 26,25 85,25c71,0 63,5 126,-72c14,-18 68,-16 75,2c9,23 -23,81 -57,106c-35,24 -110,49 -148,49c-14,-1 -46,-8 -71,-16z"/>
   <path id="svg_36" d="m9559,3900c-51,-27 -114,-102 -133,-157c-20,-59 -21,-184 -1,-249c20,-67 72,-126 136,-154c43,-18 66,-21 123,-18c124,7 204,64 151,108c-13,11 -23,9 -59,-8c-57,-29 -148,-30 -193,-2c-42,25 -75,90 -71,138l3,37l180,5l180,5l3,50c8,112 -40,209 -122,246c-55,25 -149,24 -197,-1zm188,-93c25,-25 45,-89 36,-113c-7,-20 -261,-20 -269,-1c-15,39 65,143 114,149c44,5 93,-9 119,-35z"/>
   <path id="svg_37" d="m10495,3908c-47,-17 -96,-58 -111,-94c-41,-99 9,-177 141,-217c28,-8 69,-20 92,-27c59,-18 85,-48 81,-95c-4,-56 -40,-78 -119,-78c-70,1 -105,20 -129,71c-13,28 -20,32 -59,32l-44,0l6,-34c8,-50 44,-92 101,-121c94,-47 243,-29 303,36c48,52 56,127 21,179c-34,50 -87,75 -225,110c-62,15 -85,38 -85,85c0,58 35,85 111,85c48,0 63,-4 85,-25c14,-13 31,-36 36,-50c7,-19 17,-25 39,-25c53,0 60,7 49,48c-27,100 -175,161 -293,120z"/>
   <path id="svg_38" d="m11448,3777c-41,-19 -69,-48 -89,-95c-24,-55 -24,-79 0,-134c22,-51 52,-80 105,-102c51,-21 77,-20 130,5c70,32 106,88 106,161c0,61 -62,158 -101,158c-10,0 -21,5 -24,10c-8,14 -94,11 -127,-3z"/>
   <path id="svg_39" d="m10769,3010c-122,-128 -182,-314 -164,-509c13,-141 44,-227 120,-329c49,-68 90,-96 105,-72c9,15 6,22 -45,93c-65,91 -95,205 -94,367c0,183 29,289 109,395c35,47 45,66 38,79c-14,24 -28,20 -69,-24z"/>
   <path id="svg_40" d="m4545,3002c-76,-17 -152,-89 -179,-170c-20,-59 -20,-170 0,-231c39,-121 178,-189 297,-147c21,8 47,22 57,31c18,17 20,17 26,1c11,-29 -6,-116 -30,-155c-46,-72 -82,-81 -261,-68c-26,2 -30,-2 -33,-25c-5,-45 32,-61 141,-61c84,-1 98,2 146,28c64,35 95,73 121,149c17,48 20,82 20,249c0,215 -8,255 -61,320c-17,21 -47,46 -68,56c-41,21 -130,33 -176,23zm143,-103c38,-23 62,-89 68,-181c7,-104 -10,-142 -76,-175c-79,-41 -154,-24 -200,44c-20,30 -26,51 -29,115c-3,69 0,85 23,132c28,56 56,82 97,88c34,5 90,-6 117,-23z"/>
   <path id="svg_41" d="m18136,2983c-4,-10 5,-30 24,-54c96,-120 138,-296 119,-499c-13,-140 -42,-220 -113,-314c-38,-49 -44,-71 -22,-79c32,-12 139,122 180,226c51,128 57,343 15,473c-25,77 -78,166 -132,222c-44,45 -61,51 -71,25z"/>
   <path id="svg_42" d="m11020,2964c-45,-20 -68,-41 -91,-86c-35,-69 -20,-108 36,-94c17,4 25,13 25,27c0,33 30,75 67,93c96,46 193,-12 193,-116c0,-53 -48,-122 -199,-287c-198,-217 -200,-212 90,-209c188,3 214,5 217,19c2,9 -4,24 -13,33c-14,13 -41,16 -161,16c-97,0 -144,4 -144,11c0,15 31,53 114,139c143,148 195,241 177,320c-23,103 -88,150 -205,150c-40,-1 -86,-7 -106,-16z"/>
   <path id="svg_43" d="m8007,2952c-11,-12 -13,-22 -6,-35c9,-15 28,-17 177,-17c175,0 212,-5 212,-24c0,-7 -20,-39 -44,-73c-94,-129 -155,-279 -185,-456c-21,-124 -16,-141 39,-135c32,3 35,6 38,38c4,59 33,212 52,275c34,111 73,186 157,298c48,64 62,109 43,132c-10,13 -50,15 -240,15c-203,0 -229,-2 -243,-18z"/>
   <path id="svg_44" d="m8621,2944c-27,-34 -26,-38 5,-59l26,-17l-7,-122c-5,-100 -4,-129 9,-159c16,-38 41,-56 56,-41c5,5 10,93 11,196c2,170 1,189 -16,208c-25,28 -59,25 -84,-6z"/>
   <path id="svg_45" d="m11604,2748c-161,-245 -169,-260 -161,-282c5,-13 29,-16 144,-16c76,0 143,-4 150,-8c7,-4 13,-37 15,-77l3,-70l40,0l40,0l3,71c3,77 9,83 70,84c26,0 40,26 23,43c-7,7 -29,17 -49,22l-37,11l-5,219l-5,220l-42,3l-42,3l-147,-223zm156,-78c0,-85 -4,-130 -12,-138c-18,-18 -198,-17 -198,1c0,12 100,164 168,256c35,47 42,29 42,-119z"/>
   <path id="svg_46" d="m12286,2954c-9,-8 -16,-17 -16,-19c0,-2 7,-11 16,-19c13,-13 43,-16 175,-16c133,0 161,-2 165,-15c4,-9 -14,-45 -44,-88c-27,-39 -59,-91 -71,-114c-67,-133 -122,-374 -90,-394c41,-26 79,4 79,62c0,54 26,169 57,254c30,80 67,143 136,234c34,46 47,71 45,90c-3,24 -8,27 -58,33c-30,3 -128,6 -217,7c-134,1 -164,-2 -177,-15z"/>
   <path id="svg_47" d="m5060,2950c-38,-9 -80,-51 -80,-80c0,-34 18,-31 59,10c48,49 81,52 122,11c33,-33 35,-50 14,-90c-15,-29 -39,-41 -88,-41c-45,0 -27,-22 28,-37c56,-14 75,-33 75,-78c0,-89 -111,-112 -169,-34c-18,23 -25,28 -36,19c-10,-8 -11,-18 -4,-38c14,-39 55,-65 109,-70c121,-11 190,94 124,190l-26,37l21,27c14,18 21,41 21,70c0,81 -75,127 -170,104z"/>
   <path id="svg_48" d="m16127,2936c-48,-18 -83,-49 -110,-101c-18,-33 -22,-57 -22,-135c0,-86 3,-99 27,-136c52,-81 178,-112 266,-66c23,12 45,22 47,22c13,0 2,-86 -15,-120c-30,-58 -74,-85 -140,-85c-30,0 -69,4 -87,8c-27,7 -32,5 -38,-14c-13,-41 15,-54 123,-54c88,0 101,2 137,26c97,64 110,104 110,334c0,176 -1,181 -26,225c-52,88 -176,132 -272,96zm143,-69c13,-7 35,-28 47,-46c20,-29 23,-47 23,-123c0,-87 -1,-91 -30,-118c-34,-32 -109,-48 -150,-32c-80,31 -113,167 -64,264c31,61 111,87 174,55z"/>
   <path id="svg_49" d="m15630,2928c-119,-25 -130,-30 -130,-54c0,-21 5,-23 63,-26l62,-3l5,-290l5,-290l35,0l35,0l6,70c9,93 11,569 3,589c-7,18 -18,18 -84,4z"/>
   <path id="svg_50" d="m5396,2883c-10,-21 -22,-46 -28,-56c-13,-26 -98,-289 -98,-305c0,-7 -4,-20 -9,-30c-17,-33 -41,-129 -41,-165c0,-61 37,-61 63,1c20,47 74,226 110,367c9,33 20,79 26,101c13,48 15,124 3,124c-4,0 -16,-17 -26,-37z"/>
   <path id="svg_51" d="m8990,2858c0,-6 -6,-19 -14,-27c-29,-33 -166,-428 -166,-478c0,-41 26,-56 47,-27c41,56 166,544 139,544c-3,0 -6,-5 -6,-12z"/>
   <path id="svg_52" d="m10062,2825c-18,-8 -46,-24 -62,-35c-36,-26 -53,-25 -65,3c-6,13 -21,23 -37,25c-47,6 -50,-16 -41,-313l8,-270l34,-3c18,-2 39,2 45,8c7,7 11,80 11,226l0,216l32,28c74,67 183,57 216,-20c6,-14 14,-117 17,-235l5,-210l26,-9c58,-20 59,-18 59,227l0,223l-27,54c-20,39 -39,59 -66,73c-51,26 -114,31 -155,12z"/>
   <path id="svg_53" d="m9600,2811c-12,-8 -14,-52 -11,-288c1,-153 6,-282 10,-286c5,-5 24,-7 42,-5l34,3l3,258c3,286 -1,321 -39,325c-13,1 -31,-2 -39,-7z"/>
   <path id="svg_54" d="m6489,2790c-19,-10 -41,-26 -48,-34c-20,-24 -48,-20 -55,8c-9,37 -68,42 -81,8c-3,-9 -3,-140 1,-290l7,-273l46,3l46,3l-4,206c-4,235 1,254 69,289c76,39 154,18 183,-49c6,-15 13,-114 17,-236l5,-210l43,-3l43,-3l-3,238c-3,246 -4,252 -48,307c-44,54 -153,72 -221,36z"/>
   <path id="svg_55" d="m6041,2772c-7,-13 -8,-112 -4,-291l6,-271l23,-6c12,-3 32,-3 43,1c20,6 21,12 20,233c-1,125 -4,254 -8,287c-6,59 -7,60 -38,63c-23,2 -34,-2 -42,-16z"/>
   <path id="svg_56" d="m13210,2774c-87,-38 -130,-117 -130,-241c0,-169 78,-262 221,-263c73,0 117,19 163,70c44,48 46,83 6,88c-20,2 -33,-6 -58,-37c-40,-50 -92,-67 -151,-51c-72,19 -107,94 -98,210c8,116 52,170 139,170c59,0 89,-18 116,-68c19,-34 29,-42 52,-42c38,0 44,29 16,82c-44,83 -181,123 -276,82z"/>
   <path id="svg_57" d="m13807,2776c-21,-8 -47,-22 -57,-31c-18,-16 -20,-15 -41,9c-12,14 -30,26 -39,26c-37,0 -40,-18 -40,-256c0,-249 2,-259 52,-252c20,3 24,11 30,58c3,30 6,116 7,191c1,156 8,174 76,189c58,13 106,-2 130,-42c18,-30 20,-49 18,-197c-1,-94 2,-171 8,-182c12,-24 64,-26 73,-3c3,9 6,80 6,159c0,171 4,197 40,235c24,26 35,30 82,30c46,0 58,-4 79,-26c23,-25 24,-30 27,-215c3,-174 5,-190 23,-199c13,-7 25,-7 38,-1c16,9 20,27 27,128c10,158 -6,282 -40,328c-55,72 -175,79 -245,14c-38,-35 -42,-35 -67,-8c-24,27 -91,59 -124,58c-14,0 -42,-6 -63,-13z"/>
   <path id="svg_58" d="m7238,2763c-10,-2 -18,-10 -18,-17c0,-7 29,-55 65,-107c36,-52 65,-99 65,-104c0,-6 -29,-59 -65,-119c-35,-60 -62,-113 -59,-117c3,-5 18,-9 34,-9c32,0 50,21 94,107c14,28 30,55 36,58c16,10 43,-17 86,-86c39,-63 74,-83 100,-58c12,12 3,29 -56,114c-39,54 -70,107 -70,117c0,9 25,59 56,109c57,94 61,119 22,119c-34,0 -42,-8 -84,-88c-21,-40 -43,-71 -49,-69c-5,2 -31,34 -58,72c-44,64 -64,86 -77,84c-3,-1 -13,-3 -22,-6z"/>
   <path id="svg_59" d="m14700,2754c0,-9 30,-61 66,-115c36,-54 66,-107 66,-116c1,-10 -34,-69 -76,-131c-42,-61 -74,-117 -71,-122c7,-11 45,-13 69,-4c9,3 39,44 67,90c31,49 58,84 68,84c10,0 35,-33 64,-84c50,-87 60,-96 106,-96c38,0 43,8 21,39c-56,80 -140,213 -140,221c0,6 32,57 71,115c77,114 82,138 27,133c-29,-3 -40,-13 -86,-83c-29,-44 -57,-81 -62,-83c-5,-2 -27,25 -49,60c-65,105 -69,108 -106,108c-25,0 -35,-4 -35,-16z"/>
   <path id="svg_60" d="m16960,2759c-111,-21 -168,-110 -169,-260c-1,-72 3,-93 25,-137c51,-102 153,-144 268,-110c52,16 126,88 126,123c0,22 -4,25 -33,25c-26,0 -36,-6 -45,-25c-18,-38 -69,-65 -125,-65c-42,0 -54,5 -82,33c-56,56 -72,177 -36,267c25,62 58,84 125,84c62,1 98,-23 122,-81c11,-25 21,-33 39,-33c38,0 49,32 26,77c-42,84 -134,122 -241,102z"/>
   <path id="svg_61" d="m17498,2743c-21,-8 -38,-19 -38,-24c0,-16 -26,-10 -45,11c-22,24 -60,26 -69,4c-3,-9 -6,-118 -6,-243c0,-234 3,-251 41,-251c42,0 46,20 48,212l1,183l30,28c55,50 155,33 183,-32c6,-14 13,-107 16,-206c6,-178 6,-180 29,-183c47,-7 52,9 52,172c0,167 8,211 44,245c30,28 100,38 136,19c39,-21 49,-68 49,-245c1,-89 4,-168 7,-177c9,-23 61,-21 74,3c5,11 10,83 10,163c0,216 -24,289 -107,324c-66,28 -135,12 -196,-45l-29,-26l-23,27c-49,57 -130,73 -207,41z"/>
   <path id="svg_62" d="m5562,2648c-106,-159 -124,-192 -110,-206c7,-7 42,-12 83,-12c78,0 95,-9 95,-51c0,-33 21,-54 38,-37c7,7 12,25 12,40c0,20 7,32 24,40c37,16 39,34 6,48l-29,12l-3,132c-3,126 -4,131 -25,134c-18,3 -34,-16 -91,-100z"/>
   <path id="svg_63" d="m9163,2696c-37,-17 -71,-72 -54,-89c8,-8 22,1 49,31c43,47 68,52 100,22c38,-36 25,-110 -28,-160c-46,-43 -120,-132 -120,-144c0,-14 17,-16 116,-16c88,0 115,3 112,13c-3,8 -30,13 -76,15c-61,2 -72,6 -72,21c0,9 12,28 26,42c15,13 46,50 70,83c33,44 44,67 44,95c0,73 -91,121 -167,87z"/>
   <path id="svg_64" d="m10277,1934c-4,-4 -7,-60 -7,-124c0,-80 -4,-122 -13,-134c-13,-17 -15,-17 -48,3c-51,31 -156,30 -209,-4c-117,-74 -149,-327 -56,-452c45,-59 85,-78 167,-77c51,1 74,6 97,23c38,26 59,27 67,1c5,-15 15,-20 40,-20l33,0l7,313c4,171 5,348 3,392l-3,80l-35,3c-20,2 -39,0 -43,-4zm-84,-315c12,-6 32,-21 45,-32c21,-19 22,-28 22,-157c0,-123 -2,-140 -20,-163c-26,-33 -81,-51 -137,-44c-48,5 -77,26 -101,72c-21,40 -20,196 1,245c16,36 50,73 77,83c27,10 91,7 113,-4z"/>
   <path id="svg_65" d="m12652,1918c-9,-9 -12,-109 -12,-389l0,-377l26,-6c49,-13 61,-1 68,66c8,78 8,681 0,702c-7,19 -64,22 -82,4z"/>
   <path id="svg_66" d="m13802,1918c-8,-8 -12,-54 -12,-140c0,-116 -2,-128 -18,-128c-10,0 -29,8 -42,17c-18,13 -45,18 -101,18c-67,0 -80,-3 -112,-27c-50,-39 -75,-85 -93,-170c-26,-120 -5,-225 57,-293c65,-71 168,-84 260,-33l41,23l15,-23c17,-24 52,-29 71,-10c9,9 12,108 12,385l0,373l-26,10c-33,13 -37,13 -52,-2zm-89,-313c67,-28 77,-52 77,-187c0,-131 -9,-162 -57,-193c-40,-27 -123,-26 -160,1c-47,34 -63,78 -63,175c0,71 4,93 25,135c38,76 102,101 178,69z"/>
   <path id="svg_67" d="m8713,1873c-4,-9 11,-93 32,-187c21,-94 44,-196 51,-226c7,-30 20,-89 29,-130c10,-41 21,-92 25,-112c10,-52 27,-70 64,-66c27,3 32,9 47,53c20,58 59,183 84,270c25,83 66,207 75,224c8,16 19,-16 106,-324c31,-110 61,-206 66,-212c6,-7 23,-13 39,-13c41,0 29,-38 150,470c16,69 37,151 46,182c19,69 14,88 -26,88c-38,0 -56,-25 -70,-100c-6,-30 -18,-84 -26,-120c-8,-36 -19,-85 -25,-110c-5,-25 -16,-76 -24,-114c-8,-38 -21,-76 -29,-84c-13,-12 -16,-9 -25,29c-19,86 -120,437 -133,465c-11,22 -22,30 -46,32c-37,4 -44,-6 -74,-105c-34,-115 -69,-235 -94,-313c-13,-41 -26,-91 -30,-110c-8,-35 -8,-35 -17,-10c-5,14 -16,54 -24,90c-71,336 -95,435 -106,442c-22,13 -58,9 -65,-9z"/>
   <path id="svg_68" d="m11345,1858c-3,-13 -4,-176 -3,-363l3,-340l40,0l40,0l3,148l3,148l27,10c16,7 66,9 123,6c149,-8 172,-31 183,-186c9,-121 14,-131 71,-131c25,0 45,1 45,3c0,1 -7,24 -15,51c-8,27 -15,80 -15,117c0,84 -10,111 -56,153l-37,34l38,33c120,106 67,296 -90,327c-32,7 -125,12 -206,12c-146,0 -149,0 -154,-22zm352,-67c55,-25 77,-67 70,-135c-4,-41 -10,-55 -36,-77c-37,-31 -75,-39 -184,-39c-117,0 -117,0 -117,126c0,146 -2,144 123,144c78,0 112,-5 144,-19z"/>
   <path id="svg_69" d="m9680,1680c-7,-12 -9,-109 -8,-272l3,-253l40,0l40,0l5,250c3,138 2,260 -2,273c-10,29 -62,31 -78,2z"/>
   <path id="svg_70" d="m10632,1679c-58,-29 -99,-81 -122,-158c-25,-80 -25,-122 0,-205c22,-70 62,-121 123,-153c50,-27 189,-24 244,5c51,26 57,36 43,62c-11,21 -44,27 -55,11c-3,-5 -31,-15 -61,-21c-104,-22 -180,19 -204,109c-19,70 -17,71 160,71c87,0 165,3 174,6c12,5 16,20 16,63c0,107 -34,172 -111,211c-53,28 -150,27 -207,-1zm168,-64c37,-19 62,-66 58,-108l-3,-32l-125,0l-125,0l-3,32c-3,26 5,40 41,77c38,40 49,46 86,46c23,0 55,-7 71,-15z"/>
   <path id="svg_71" d="m12037,1683c-12,-12 -8,-388 5,-424c28,-82 81,-119 171,-119c64,0 98,11 128,41l21,21l29,-32c19,-20 35,-30 45,-26c9,3 20,6 25,6c5,0 9,110 9,264l0,264l-25,6c-14,4 -34,2 -45,-4c-19,-10 -20,-22 -20,-201l0,-191l-33,-33c-55,-55 -150,-59 -198,-9c-23,25 -24,30 -27,222c-2,115 -8,202 -14,210c-11,13 -60,17 -71,5z"/>
   <path id="svg_72" d="m13005,1672c-98,-46 -152,-155 -142,-287c13,-168 96,-248 259,-248c94,0 168,30 168,68c0,33 -26,38 -87,15c-65,-24 -100,-25 -153,-4c-46,19 -86,77 -92,134l-3,35l169,3c112,2 174,7 184,14c21,18 12,132 -14,183c-11,22 -39,53 -62,69c-54,38 -165,47 -227,18zm181,-85c29,-27 37,-41 38,-73l1,-39l-132,-3c-149,-3 -150,-3 -115,68c24,48 75,80 129,80c35,0 50,-6 79,-33z"/>
  </g>
  <path stroke="#ffffff" d="m560.544764,1151.142822c-0.339027,-0.568359 -0.861135,-0.857056 -0.861135,-1.761841c0,-0.872803 0,-1.751099 0,-2.590454c0,-0.95166 0.030398,-1.188599 0.645817,-1.076294c0.675388,0.123169 1.076408,0.348999 1.076408,1.214478c0,0.899902 -0.045483,1.807617 0.151854,2.602173c0.214858,0.865112 0.377842,1.945923 -0.065718,2.18335c-0.645541,0.345581 -1.327551,0 -2.029106,0c-0.661913,0 -1.561357,0.546021 -1.932024,-0.102051c-0.379267,-0.663086 0.215272,-1.733765 0.394674,-2.516968l0.448066,-0.523804l0.461219,-0.470703" id="svg_76" stroke-width="5" fill="none"/>
  <text stroke="#ffffff" transform="matrix(3.7806742191314693,0,0,2.564854860305786,-2888.621730010956,-1840.960753861815) " xml:space="preserve" text-anchor="middle" font-family="serif" font-size="24" id="svg_77" y="1195.857091" x="1021.092147" stroke-linecap="null" stroke-linejoin="null" stroke-dasharray="null" stroke-width="0" fill="#000000">.</text>
 </g>
</svg>